# xmcd
#
# Track frame offsets: 
#        150
#        2114
#        7429
#        22646
#        40559
#        56438
#        64064
#        75900
#        92614
#        108259
#        121465
#        136539
#        154401
#        168402
#        183192
#        203425
#        216010
#        231973
#        245590
#        256474
#        271510
#        287214
#        302163
#
# Disc length: 4057 seconds
#
# Revision: 0
# Processed by: cddbd v1.5.2PL0 Copyright (c) Steve Scherf et al.
# Submitted via: ExactAudioCopyFreeDBPlugin 1.0
#
DISCID=250fd717
DTITLE=Truck Stop - Männer sind so LIVE Radiokonzert
DYEAR=2015
DGENRE=Country
TTITLE0=Intro
TTITLE1=Long Hard Ride
TTITLE2=Square Dance Darling
TTITLE3=Ich möcht' so gern Dave Dudley hörn
TTITLE4=Die Lady und der Tramp
TTITLE5=Grossstadtrevier
TTITLE6=Mein Stiefel kommt in den Himmel
TTITLE7=Männer sind so
TTITLE8=Tausend gute Gründe für 'ne Selter
TTITLE9=Wer hat die guten Zeiten abgeschafft
TTITLE10=Danke für nix
TTITLE11=Die Party geht weiter
TTITLE12=Bauchgefühl
TTITLE13=Du bist so süß, wenn du Recht hast
TTITLE14=Frei sein kann man nur alleine
TTITLE15=Deine Mutter ist immer dabei
TTITLE16=Blue Gras Medley
TTITLE17=Tanz mit mir
TTITLE18=Take it easy altes Haus
TTITLE19=Der wilde, wilde Westen
TTITLE20=Hilly Billy Country Lilly
TTITLE21=Ein Tag wie ein Freund
TTITLE22=Outro
EXTD=
EXTT0=
EXTT1=
EXTT2=
EXTT3=
EXTT4=
EXTT5=
EXTT6=
EXTT7=
EXTT8=
EXTT9=
EXTT10=
EXTT11=
EXTT12=
EXTT13=
EXTT14=
EXTT15=
EXTT16=
EXTT17=
EXTT18=
EXTT19=
EXTT20=
EXTT21=
EXTT22=
PLAYORDER=
